<svg width="38" height="33" viewBox="0 0 38 33" fill="none" xmlns="http://www.w3.org/2000/svg">
<path d="M31.3726 7H35.2942V11.1026" stroke="#E3C0FF" stroke-linecap="round"/>
<path d="M7.05884 7H2.35295V11.1026" stroke="#E3C0FF" stroke-linecap="round"/>
<rect x="0.5" y="11.6025" width="2.92157" height="4.7436" rx="0.5" fill="white" stroke="#E3C0FF"/>
<rect x="34.2255" y="11.6025" width="2.92157" height="4.7436" rx="0.5" fill="white" stroke="#E3C0FF"/>
<path d="M8.09598 28.2099C8.09598 27.3208 8.81676 26.6 9.70589 26.6V26.6C10.595 26.6 11.3158 27.3208 11.3158 28.2099V31.3901C11.3158 32.2792 10.595 33 9.70589 33V33C8.81676 33 8.09598 32.2792 8.09598 31.3901V28.2099Z" fill="#E3C0FF"/>
<path d="M26.548 28.0458C26.548 27.1567 27.2688 26.4359 28.1579 26.4359V26.4359C29.0471 26.4359 29.7679 27.1567 29.7679 28.0458V31.226C29.7679 32.1151 29.0471 32.8359 28.1579 32.8359V32.8359C27.2688 32.8359 26.548 32.1151 26.548 31.226V28.0458Z" fill="#E3C0FF"/>
<rect x="5" width="28.2353" height="27.8975" rx="5" fill="#E3C0FF"/>
<path d="M6.48607 9.92298C6.48607 7.71384 8.27693 5.92297 10.4861 5.92297H27.7493C29.9584 5.92297 31.7493 7.71383 31.7493 9.92297V13.4102C31.7493 15.6193 29.9584 17.4102 27.7493 17.4102H10.4861C8.27693 17.4102 6.48607 15.6193 6.48607 13.4102V9.92298Z" fill="white"/>
<path d="M14.4118 23.1177C14.4118 24.4172 13.3583 25.4707 12.0588 25.4707C10.7593 25.4707 9.70589 24.4172 9.70589 23.1177C9.70589 21.8182 10.7593 20.7648 12.0588 20.7648C13.3583 20.7648 14.4118 21.8182 14.4118 23.1177Z" fill="white"/>
<circle cx="27.1177" cy="23.1177" r="2.35294" fill="white"/>
<path d="M12.9257 2.98889H12.4257V3.98889H12.9257V2.98889ZM25.161 3.98889C25.4372 3.98889 25.661 3.76503 25.661 3.48889C25.661 3.21275 25.4372 2.98889 25.161 2.98889V3.98889ZM12.9257 3.98889H25.161V2.98889H12.9257V3.98889Z" fill="white"/>
</svg>
