<svg width="20" height="29" viewBox="0 0 20 29" fill="none" xmlns="http://www.w3.org/2000/svg">
<path d="M10 0.0197754C4.47143 0.0197754 0 4.4912 0 10.0198C0 12.5055 0.714285 14.8341 2.01429 16.9341C3.37143 19.1341 5.15714 21.0198 6.52857 23.2198C7.2 24.2912 7.68571 25.2912 8.2 26.4483C8.57143 27.2341 8.87143 28.5912 10 28.5912C11.1286 28.5912 11.4286 27.2341 11.7857 26.4483C12.3143 25.2912 12.7857 24.2912 13.4571 23.2198C14.8286 21.0341 16.6143 19.1483 17.9714 16.9341C19.2857 14.8341 20 12.5055 20 10.0198C20 4.4912 15.5286 0.0197754 10 0.0197754ZM10 13.9483C8.02857 13.9483 6.42857 12.3483 6.42857 10.3769C6.42857 8.40549 8.02857 6.80549 10 6.80549C11.9714 6.80549 13.5714 8.40549 13.5714 10.3769C13.5714 12.3483 11.9714 13.9483 10 13.9483Z" fill="black"/>
</svg>
