<svg width="28" height="29" viewBox="0 0 28 29" fill="none" xmlns="http://www.w3.org/2000/svg">
<circle cx="14" cy="14.2956" r="14" fill="#939DFF"/>
<path d="M7 13.2957C6.72386 13.2957 6.5 13.5195 6.5 13.7957C6.5 14.0718 6.72386 14.2957 7 14.2957V13.2957ZM21.3536 14.1492C21.5488 13.9539 21.5488 13.6374 21.3536 13.4421L18.1716 10.2601C17.9763 10.0649 17.6597 10.0649 17.4645 10.2601C17.2692 10.4554 17.2692 10.772 17.4645 10.9672L20.2929 13.7957L17.4645 16.6241C17.2692 16.8193 17.2692 17.1359 17.4645 17.3312C17.6597 17.5265 17.9763 17.5265 18.1716 17.3312L21.3536 14.1492ZM7 14.2957H21V13.2957H7V14.2957Z" fill="white"/>
</svg>
