<svg width="29" height="40" viewBox="0 0 29 40" fill="none" xmlns="http://www.w3.org/2000/svg">
<path d="M19.1486 5.09933C19.1486 7.91562 16.8655 10.1987 14.0492 10.1987C11.2329 10.1987 8.94989 7.91562 8.94989 5.09933C8.94989 2.28305 11.2329 0 14.0492 0C16.8655 0 19.1486 2.28305 19.1486 5.09933Z" fill="white"/>
<path fill-rule="evenodd" clip-rule="evenodd" d="M8.83497 19.8708L10.6497 18.9997V24.2219C10.6497 24.9603 10.9187 25.6358 11.3641 26.1559C11.4219 26.3681 11.5091 26.5761 11.6272 26.7743L17.6652 36.9037C18.3655 38.0787 19.8857 38.4634 21.0606 37.7631C22.2356 37.0627 22.6203 35.5425 21.9199 34.3676L16.442 25.1776C16.5437 24.8776 16.5989 24.5562 16.5989 24.2219V20.4263L17.5123 21.1769C18.711 22.1619 20.1703 22.7771 21.7125 22.9476L25.6181 23.3793C27.2649 23.5613 28.7475 22.3738 28.9295 20.727C29.1115 19.0802 27.924 17.5976 26.2772 17.4156L22.3716 16.9839C21.9861 16.9413 21.6212 16.7875 21.3216 16.5412L15.9539 12.1304C15.2769 11.5741 14.4293 11.3637 13.6253 11.4783C13.0566 11.3962 12.4581 11.4763 11.9011 11.7436L6.23858 14.4617C3.46486 15.793 1.70043 18.5971 1.70043 21.6738V24.6469C1.70043 26.3037 3.04357 27.6469 4.70043 27.6469C6.35728 27.6469 7.70043 26.3037 7.70043 24.6469V21.6738C7.70043 20.9047 8.14153 20.2036 8.83497 19.8708ZM10.2101 27.786C11.7629 28.364 12.5531 30.0914 11.975 31.6441L11.3966 33.1979C10.6907 35.0942 9.29237 36.6526 7.48334 37.5591L4.34469 39.132C2.86342 39.8743 1.06087 39.2752 0.318573 37.7939C-0.423718 36.3127 0.175344 34.5101 1.65662 33.7678L4.79527 32.195C5.24752 31.9683 5.5971 31.5788 5.77358 31.1047L6.352 29.5509C6.93003 27.9981 8.65738 27.208 10.2101 27.786Z" fill="white"/>
</svg>
