<svg width="20" height="22" viewBox="0 0 20 22" fill="none" xmlns="http://www.w3.org/2000/svg">
<path d="M14.6651 13.8995H13.7383L13.4098 13.5828C14.8176 11.9404 15.545 9.69964 15.1461 7.31815C14.5947 4.0568 11.873 1.4524 8.58819 1.05353C3.62577 0.443494 -0.550646 4.61991 0.0593914 9.58233C0.458262 12.8671 3.06265 15.5889 6.32401 16.1402C8.7055 16.5391 10.9462 15.8118 12.5886 14.404L12.9054 14.7325V15.6592L17.8913 20.6451C18.3723 21.1261 19.1583 21.1261 19.6393 20.6451C20.1202 20.1641 20.1202 19.3781 19.6393 18.8971L14.6651 13.8995ZM7.62621 13.8995C4.70506 13.8995 2.34703 11.5415 2.34703 8.62035C2.34703 5.6992 4.70506 3.34117 7.62621 3.34117C10.5473 3.34117 12.9054 5.6992 12.9054 8.62035C12.9054 11.5415 10.5473 13.8995 7.62621 13.8995Z" fill="black"/>
</svg>
