<svg width="30" height="39" viewBox="0 0 30 39" fill="none" xmlns="http://www.w3.org/2000/svg">
<path d="M2.56274 4.51838C2.81076 1.95548 4.96461 0 7.53949 0H22.4605C25.0354 0 27.1892 1.95548 27.4373 4.51838L29.4695 25.5184C29.7538 28.4564 27.4445 31 24.4928 31H5.50723C2.55549 31 0.246156 28.4564 0.53048 25.5184L2.56274 4.51838Z" fill="#E3C0FF"/>
<path d="M9 24.5C9 25.8807 7.88071 27 6.5 27C5.11929 27 4 25.8807 4 24.5C4 23.1193 5.11929 22 6.5 22C7.88071 22 9 23.1193 9 24.5Z" fill="white"/>
<path d="M26 24.5C26 25.8807 24.8807 27 23.5 27C22.1193 27 21 25.8807 21 24.5C21 23.1193 22.1193 22 23.5 22C24.8807 22 26 23.1193 26 24.5Z" fill="white"/>
<path d="M5.9345 7.68952C6.08737 6.71676 6.92555 6 7.91026 6H22.0897C23.0744 6 23.9126 6.71676 24.0655 7.68952L25.6369 17.6895C25.8276 18.903 24.8895 20 23.6612 20H6.33883C5.11046 20 4.17239 18.903 4.36307 17.6895L5.9345 7.68952Z" fill="white"/>
<rect x="9" y="2" width="11" height="2" rx="1" fill="white"/>
<path d="M2.53577 37.8143L4.53577 32.8143" stroke="#D7A5FF" stroke-width="2" stroke-linecap="round"/>
<path d="M27.65 38L26.15 33" stroke="#D7A5FF" stroke-width="2" stroke-linecap="round"/>
<line x1="4" y1="33.5" x2="27" y2="33.5" stroke="#D7A5FF"/>
<line x1="4" y1="36.5" x2="27" y2="36.5" stroke="#D7A5FF"/>
</svg>
